<svg width="32" height="33" viewBox="0 0 32 33" fill="none" xmlns="http://www.w3.org/2000/svg">
<g clip-path="url(#clip0_632_2181)">
<path d="M0 0.777588H17.3353C19.7288 0.777588 21.6691 2.57238 21.6691 4.78637V31.5116H0V0.777588Z" fill="#ED0F84"/>
<path d="M12.6154 15.0436C12.6154 15.9564 12.3447 16.8488 11.8376 17.6078C11.3304 18.3668 10.6096 18.9583 9.76626 19.3077C8.92291 19.657 7.99491 19.7484 7.09961 19.5703C6.20432 19.3922 5.38193 18.9527 4.73646 18.3072C4.09099 17.6617 3.65141 16.8393 3.47333 15.944C3.29524 15.0487 3.38664 14.1207 3.73597 13.2774C4.0853 12.434 4.67686 11.7132 5.43586 11.2061C6.19486 10.6989 7.08719 10.4282 8.00003 10.4282C9.22411 10.4282 10.398 10.9145 11.2636 11.78C12.1292 12.6456 12.6154 13.8195 12.6154 15.0436Z" fill="#ED0F84"/>
<path d="M8.57692 17.5437C8.57692 17.6578 8.54309 17.7693 8.47969 17.8642C8.4163 17.9591 8.3262 18.033 8.22078 18.0767C8.11536 18.1204 7.99936 18.1318 7.88745 18.1095C7.77554 18.0873 7.67274 18.0323 7.59205 17.9516C7.51137 17.871 7.45642 17.7682 7.43416 17.6563C7.4119 17.5443 7.42333 17.4283 7.46699 17.3229C7.51066 17.2175 7.58461 17.1274 7.67948 17.064C7.77435 17.0006 7.8859 16.9668 8 16.9668C8.15301 16.9668 8.29975 17.0276 8.40795 17.1358C8.51614 17.2439 8.57692 17.3907 8.57692 17.5437ZM8 12.3514C6.93942 12.3514 6.07692 13.1278 6.07692 14.0822V14.2745C6.07692 14.3765 6.11745 14.4743 6.18958 14.5464C6.2617 14.6186 6.35953 14.6591 6.46154 14.6591C6.56355 14.6591 6.66137 14.6186 6.7335 14.5464C6.80563 14.4743 6.84616 14.3765 6.84616 14.2745V14.0822C6.84616 13.5533 7.36394 13.1206 8 13.1206C8.63606 13.1206 9.15385 13.5533 9.15385 14.0822C9.15385 14.611 8.63606 15.0437 8 15.0437C7.89799 15.0437 7.80017 15.0842 7.72804 15.1564C7.65591 15.2285 7.61539 15.3263 7.61539 15.4283V15.8129C7.61539 15.9149 7.65591 16.0128 7.72804 16.0849C7.80017 16.157 7.89799 16.1975 8 16.1975C8.10201 16.1975 8.19984 16.157 8.27197 16.0849C8.3441 16.0128 8.38462 15.9149 8.38462 15.8129V15.7783C9.26154 15.6173 9.92308 14.9177 9.92308 14.0822C9.92308 13.1278 9.06058 12.3514 8 12.3514ZM13 15.0437C13 16.0326 12.7068 16.9993 12.1573 17.8216C11.6079 18.6438 10.827 19.2847 9.91342 19.6631C8.99979 20.0415 7.99445 20.1406 7.02455 19.9476C6.05465 19.7547 5.16373 19.2785 4.46447 18.5792C3.76521 17.88 3.289 16.9891 3.09608 16.0192C2.90315 15.0492 3.00217 14.0439 3.3806 13.1303C3.75904 12.2167 4.3999 11.4358 5.22215 10.8864C6.0444 10.3369 7.01109 10.0437 8 10.0437C9.32565 10.0451 10.5966 10.5723 11.534 11.5097C12.4714 12.4471 12.9986 13.718 13 15.0437ZM12.2308 15.0437C12.2308 14.2069 11.9826 13.389 11.5178 12.6932C11.0529 11.9975 10.3921 11.4552 9.61905 11.135C8.84597 10.8148 7.99531 10.731 7.17462 10.8942C6.35393 11.0575 5.60008 11.4604 5.0084 12.0521C4.41671 12.6438 4.01377 13.3976 3.85053 14.2183C3.68728 15.039 3.77106 15.8897 4.09128 16.6627C4.4115 17.4358 4.95377 18.0966 5.64951 18.5615C6.34526 19.0263 7.16323 19.2745 8 19.2745C9.12168 19.2732 10.1971 18.827 10.9902 18.0339C11.7833 17.2408 12.2295 16.1654 12.2308 15.0437Z" fill="#ED0F84"/>
<path d="M31.7814 6.12256H21.6691V31.5115H31.7814V6.12256Z" fill="#FAB0D7"/>
</g>
<defs>
<clipPath id="clip0_632_2181">
<rect width="32" height="32" fill="white" transform="translate(0 0.0437012)"/>
</clipPath>
</defs>
</svg>
