<svg width="32" height="33" viewBox="0 0 32 33" fill="none" xmlns="http://www.w3.org/2000/svg">
<g clip-path="url(#clip0_467_2630)">
<path fill-rule="evenodd" clip-rule="evenodd" d="M27.4499 0.859131H10.3082V31.0257H31.7838V6.90945C29.6695 5.70081 27.8999 5.1342 26.5014 5.01129C24.6028 4.84444 23.4173 5.48691 22.8303 6.45302C22.2183 7.4602 22.1709 8.95988 22.923 10.6087C23.5177 11.9123 24.6012 13.2764 26.2302 14.4866L25.3669 10.7907C25.2923 10.4709 25.5197 10.1564 25.8749 10.088C26.23 10.0196 26.5785 10.2233 26.6531 10.5431L27.8702 15.7533C27.9448 16.0731 27.7174 16.3877 27.3622 16.456L21.5743 17.5704C21.2191 17.6388 20.8707 17.435 20.7959 17.1153C20.7213 16.7956 20.9487 16.4809 21.3039 16.4126L25.6358 15.5785C23.7219 14.2145 22.4214 12.6278 21.7071 11.062C20.8545 9.19284 20.8194 7.30014 21.6778 5.88729C22.5612 4.43336 24.3043 3.62816 26.6334 3.83286C28.1129 3.96287 29.8377 4.49674 31.7838 5.52092V4.86791C31.7838 2.65392 29.8435 0.859131 27.4499 0.859131Z" fill="#ED0F84"/>
<path d="M10.1123 6.2063H0V31.5953H10.1123V6.2063Z" fill="#FAB0D7"/>
<path d="M15.0353 11.5515H4.92303V31.5954H15.0353V11.5515Z" fill="#FFE4F2"/>
</g>
<defs>
<clipPath id="clip0_467_2630">
<rect width="32" height="32" fill="white" transform="translate(0 0.126221)"/>
</clipPath>
</defs>
</svg>
