<svg width="32" height="33" viewBox="0 0 32 33" fill="none" xmlns="http://www.w3.org/2000/svg">
<g clip-path="url(#clip0_467_2621)">
<path fill-rule="evenodd" clip-rule="evenodd" d="M27.4499 1.11792H10.3082V32.058H31.7838V6.83212L22.2034 15.6799H26.5323C26.8954 15.6799 27.1897 15.9517 27.1897 16.287C27.1897 16.6223 26.8954 16.894 26.5323 16.894H20.6166C20.2535 16.894 19.9593 16.6223 19.9593 16.287V10.8235C19.9593 10.4882 20.2535 10.2164 20.6166 10.2164C20.9795 10.2164 21.2739 10.4882 21.2739 10.8235V14.8214L31.7822 5.11659C31.7192 2.89803 29.8037 1.11792 27.4499 1.11792Z" fill="#ED0F84"/>
<path d="M10.1123 6.60205H0V32.642H10.1123V6.60205Z" fill="#FAB0D7"/>
<path d="M15.0353 12.0842H4.92303V32.6421H15.0353V12.0842Z" fill="#FFE4F2"/>
</g>
<defs>
<clipPath id="clip0_467_2621">
<rect width="32" height="32" fill="white" transform="translate(0 0.70874)"/>
</clipPath>
</defs>
</svg>
