<svg width="32" height="33" viewBox="0 0 32 33" fill="none" xmlns="http://www.w3.org/2000/svg">
<g clip-path="url(#clip0_467_2625)">
<path d="M0 1.1189H17.3353C19.7288 1.1189 21.6691 2.95971 21.6691 5.23047V32.6409H0V1.1189Z" fill="#ED0F84"/>
<path d="M10.8346 11.0681C9.94836 11.0681 9.09837 11.4021 8.47173 11.9966C7.84508 12.5912 7.49303 13.3975 7.49303 14.2382C7.49303 17.0914 10.8346 19.3105 10.8346 19.3105C10.8346 19.3105 14.1761 17.0914 14.1761 14.2382C14.1761 13.3975 13.824 12.5912 13.1974 11.9966C12.5707 11.4021 11.7208 11.0681 10.8346 11.0681ZM10.8346 15.5064C10.5702 15.5064 10.3118 15.4319 10.0919 15.2926C9.87217 15.1533 9.70084 14.9552 9.59965 14.7235C9.49854 14.4918 9.47208 14.2369 9.52363 13.9909C9.57517 13.7449 9.70248 13.519 9.88946 13.3416C10.0764 13.1643 10.3145 13.0435 10.5738 12.9946C10.833 12.9456 11.1018 12.9707 11.3461 13.0667C11.5903 13.1627 11.799 13.3253 11.9459 13.5338C12.0928 13.7423 12.1711 13.9875 12.1711 14.2382C12.1711 14.5746 12.0303 14.8971 11.7797 15.1349C11.529 15.3728 11.189 15.5064 10.8346 15.5064Z" fill="white"/>
<path d="M10.8346 22.692C12.6801 22.692 14.1761 22.0296 14.1761 21.2126C14.1761 20.3955 12.6801 19.7332 10.8346 19.7332C8.98912 19.7332 7.49307 20.3955 7.49307 21.2126C7.49307 22.0296 8.98912 22.692 10.8346 22.692Z" fill="#FAB0D7"/>
<path d="M31.7814 6.60107H21.6691V32.641H31.7814V6.60107Z" fill="#FAB0D7"/>
</g>
<defs>
<clipPath id="clip0_467_2625">
<rect width="32" height="32" fill="white" transform="translate(0 0.70874)"/>
</clipPath>
</defs>
</svg>
