<svg width="32" height="33" viewBox="0 0 32 33" fill="none" xmlns="http://www.w3.org/2000/svg">
<g clip-path="url(#clip0_553_2261)">
<path fill-rule="evenodd" clip-rule="evenodd" d="M10.3616 0.689697H27.6694C30.0629 0.689697 32.0032 2.63001 32.0032 5.02352V31.8846H10.3616V6.67556C11.3364 7.93694 12.401 8.66835 13.9314 8.91078C14.9155 9.06667 15.9354 8.66748 16.6413 8.29854C17.007 8.10743 17.3176 7.90879 17.537 7.75796C17.6471 7.68227 17.7353 7.6179 17.7971 7.57156C17.828 7.54836 17.8524 7.52962 17.8697 7.51616L17.8902 7.50002L17.8964 7.4951L17.8985 7.49347L17.8992 7.49286C17.8993 7.49276 17.8998 7.49239 17.5329 6.96604L17.8992 7.49286L17.9318 7.46669L17.959 7.43881L17.96 7.43786L17.9607 7.43709L17.9741 7.4239C17.9875 7.41097 18.0096 7.39005 18.04 7.36261C18.1008 7.30767 18.1942 7.22704 18.317 7.13234C18.5634 6.94225 18.9226 6.69969 19.3682 6.49342C20.2542 6.08334 21.4669 5.82083 22.8443 6.3817C23.7543 6.75227 24.399 7.53294 24.8483 8.58229C25.2998 9.63672 25.5326 10.9169 25.6342 12.1842C25.7264 13.3352 25.7082 14.4464 25.6604 15.3172L23.2799 11.9889C23.0739 11.7009 22.6799 11.6544 22.3997 11.8849C22.1197 12.1153 22.0596 12.5358 22.2656 12.8238L25.6223 17.5169C25.8283 17.8049 26.2224 17.8515 26.5025 17.621L31.0671 13.8644C31.3472 13.6338 31.4072 13.2135 31.2013 12.9255C30.9953 12.6375 30.6013 12.5909 30.3211 12.8214L26.8995 15.6374L26.9021 15.5975C26.9626 14.6527 26.997 13.367 26.8888 12.0171C26.7811 10.6729 26.5295 9.22946 25.9984 7.98903C25.465 6.74351 24.6288 5.65802 23.3368 5.13193C21.5805 4.41674 20.0144 4.75884 18.9049 5.27239C18.3529 5.52793 17.9101 5.82694 17.6042 6.06295C17.4507 6.18132 17.3303 6.28489 17.2463 6.36087C17.2042 6.3989 17.1712 6.43013 17.1475 6.45297L17.142 6.45833C17.131 6.4668 17.1165 6.47791 17.0986 6.49135C17.0499 6.52789 16.9766 6.5814 16.8833 6.64559C16.6957 6.77451 16.4309 6.94368 16.1226 7.10479C15.4807 7.44028 14.7587 7.68309 14.1669 7.58935C12.8026 7.37322 11.9071 6.69164 10.9159 5.19688C10.8147 5.04432 10.697 4.76151 10.5788 4.36812C10.4993 4.10337 10.4266 3.81284 10.3616 3.52061V0.689697ZM25.0811 24.3275C26.514 24.3275 27.6757 23.1659 27.6757 21.7329C27.6757 20.3 26.514 19.1383 25.0811 19.1383C23.6481 19.1383 22.4865 20.3 22.4865 21.7329C22.4865 23.1659 23.6481 24.3275 25.0811 24.3275Z" fill="#ED0F84"/>
<path d="M10.1123 5.02563H0V32.4732H10.1123V5.02563Z" fill="#FAB0D7"/>
<path d="M15.0353 10.8042H4.92303V32.4733H15.0353V10.8042Z" fill="#FFE4F2"/>
<circle cx="24.5" cy="22.0437" r="3.5" fill="#ED0F84"/>
</g>
<defs>
<clipPath id="clip0_553_2261">
<rect width="32" height="32" fill="white" transform="translate(0 0.543701)"/>
</clipPath>
</defs>
</svg>
