<svg width="25" height="26" viewBox="0 0 25 26" fill="none" xmlns="http://www.w3.org/2000/svg">
<path fill-rule="evenodd" clip-rule="evenodd" d="M9.06493 6.20996L5.8857 10.5114C4.55186 12.3161 3.88494 13.2184 4.25242 13.9279C4.25851 13.9397 4.26477 13.9513 4.27122 13.9629C4.66051 14.6616 5.81236 14.6616 8.11607 14.6616C9.39625 14.6616 10.0363 14.6616 10.4378 15.0392L10.4586 15.0591L14.4786 10.3144L14.4578 10.2945C14.0648 9.90871 14.0648 9.29371 14.0648 8.06372V7.74218C14.0648 4.33196 14.0648 2.62685 13.1062 2.33307C12.1475 2.03929 11.12 3.42951 9.06493 6.20996Z" fill="#ED0F84"/>
<path opacity="0.5" d="M10.852 17.2894L10.852 17.6108C10.8519 21.0211 10.8519 22.7262 11.8106 23.02C12.7692 23.3138 13.7968 21.9236 15.8518 19.1431L19.0311 14.8417C20.3649 13.0371 21.0319 12.1347 20.6644 11.4252C20.6583 11.4135 20.652 11.4018 20.6456 11.3902C20.2563 10.6916 19.1044 10.6916 16.8007 10.6916C15.5206 10.6916 14.8805 10.6916 14.479 10.314L10.459 15.0587C10.852 15.4444 10.852 16.0594 10.852 17.2894Z" fill="#ED0F84"/>
</svg>
