<svg width="136" height="76" viewBox="0 0 136 76" fill="none" xmlns="http://www.w3.org/2000/svg">
<path d="M114.154 30.5127V60.1896C109.415 60.1625 104.975 58.8904 101.135 56.6898C101.165 56.6718 101.201 56.6567 101.228 56.6356C101.168 56.5994 101.107 56.5602 101.047 56.5301V56.6386L101.044 56.6356C100.984 56.5994 100.924 56.5602 100.863 56.5301V35.806C100.981 35.0916 101.044 34.356 101.044 33.6085C101.044 32.8609 100.981 32.1254 100.863 31.414C99.9981 26.2141 96.1156 22.0361 91.0724 20.7339C90.0083 20.4596 88.899 20.3179 87.7505 20.3179C86.6654 20.3179 85.6073 20.4475 84.5975 20.6947C78.9937 22.0572 74.7765 26.9767 74.4781 32.9272C74.466 33.1503 74.46 33.3824 74.46 33.6085C74.46 33.8345 74.466 34.0667 74.4781 34.2927V46.9533C74.3846 50.5495 71.4426 53.4373 67.8222 53.4373H67.8162C64.3074 53.4343 61.4347 50.7123 61.1845 47.2668V42.8657C61.3352 41.6841 61.4106 40.4813 61.4106 39.2575C61.4106 38.4134 61.3744 37.5784 61.2991 36.7555C61.2991 36.222 61.281 35.6824 61.2388 35.1609C61.0609 32.7825 60.4882 30.5096 59.5869 28.4116H59.5838C58.8212 26.6301 57.8174 24.9752 56.6147 23.4921C56.5845 23.4499 56.5513 23.4107 56.5212 23.3745C55.849 22.5516 55.1105 21.7829 54.3207 21.0715C54.4021 21.0836 54.4804 21.1017 54.5618 21.1197C54.4654 21.0866 54.3689 21.0504 54.2694 21.0233C54.0946 20.8635 53.9167 20.7098 53.7389 20.5591C50.83 17.403 47.2036 14.9221 43.1161 13.3727C40.0414 12.2031 36.7074 11.564 33.2228 11.564H33.1836C33.4911 11.356 33.8046 11.1541 34.1211 10.9612H34.1241C34.3381 10.8285 34.5521 10.6989 34.7722 10.5723C34.7963 10.5572 34.8234 10.5422 34.8506 10.5331C35.9599 9.89405 37.1204 9.3394 38.3232 8.86312C41.3346 7.67846 44.6143 7.02734 48.0447 7.02734C52.8105 7.02734 57.2869 8.28435 61.1544 10.4819V10.6899C61.2146 10.6567 61.2749 10.6175 61.3352 10.5813C63.801 12.0132 66.0166 13.8218 67.8976 15.941C69.7786 13.8158 72.0032 12.0011 74.4811 10.5723C74.5052 10.5572 74.5323 10.5422 74.5565 10.5331C78.4481 8.30244 82.9516 7.02734 87.7536 7.02734C92.5555 7.02734 96.9928 8.28435 100.863 10.4819V10.6899C100.924 10.6567 100.984 10.6175 101.044 10.5813C101.044 10.5813 101.047 10.5813 101.047 10.5874V10.6899C101.074 10.6748 101.107 10.6567 101.135 10.6356C105.267 13.0471 108.689 16.5469 111.01 20.7339C112.656 23.691 113.747 26.9978 114.154 30.5096V30.5127Z" fill="#ED0F84"/>
<path d="M49.0837 21.7622C48.6888 21.6447 48.2909 21.5331 47.89 21.4336C46.4793 21.0719 45.0263 20.8157 43.5432 20.665C42.3465 20.5112 41.1257 20.4329 39.8897 20.4329C33.3093 20.4329 27.2533 22.6786 22.4453 26.4436C23.9013 21.2377 27.181 16.7945 31.5519 13.8403H31.588C32.2482 13.8403 32.9023 13.8675 33.5474 13.9217H33.5504C38.7744 14.7296 43.5221 16.9663 47.3926 20.2219C47.9774 20.7132 48.5441 21.2257 49.0867 21.7652L49.0837 21.7622Z" fill="#11B9DE"/>
<path d="M34.5367 35.6406V56.3617C34.4764 56.3949 34.4161 56.4341 34.3558 56.4702C34.3558 56.4702 34.3528 56.4702 34.3528 56.4733V56.3617C34.2925 56.3949 34.2292 56.4341 34.1689 56.4702C34.199 56.4883 34.2352 56.5034 34.2623 56.5245C31.7001 57.9925 28.8665 59.0476 25.8612 59.5932C25.837 59.5992 25.8099 59.6022 25.7858 59.6052C25.7707 59.6083 25.7526 59.6113 25.7346 59.6143C25.7315 59.6173 25.7255 59.6173 25.7225 59.6173C24.3329 59.8283 22.904 59.9368 21.4571 59.9368C21.3848 59.9368 21.3184 59.9368 21.2461 59.9338V46.4503C21.2913 45.745 21.3697 45.0486 21.4722 44.3583C21.4722 44.3402 21.4782 44.3222 21.4812 44.3041C23.1241 33.3286 31.1605 24.4481 41.6718 21.5693C34.0363 26.8174 34.5336 35.6406 34.5336 35.6406H34.5367Z" fill="black"/>
</svg>
