<svg width="35" height="36" viewBox="0 0 35 36" fill="none" xmlns="http://www.w3.org/2000/svg">
<circle cx="17.5" cy="18.2178" r="17.5" fill="#ED0F84"/>
<path d="M19.1797 12.9355C19.9601 13.1411 20.672 13.55 21.2427 14.1207C21.8133 14.6913 22.2223 15.4032 22.4278 16.1837" stroke="white" stroke-width="0.92803" stroke-linecap="round" stroke-linejoin="round"/>
<path d="M18.7168 14.7925C19.675 15.0488 20.3165 15.6903 20.5729 16.6485" stroke="white" stroke-width="0.92803" stroke-linecap="round" stroke-linejoin="round"/>
<path opacity="0.2" d="M19.4356 19.0464C19.4998 19.0036 19.5737 18.9775 19.6506 18.9705C19.7275 18.9636 19.8049 18.9759 19.8758 19.0063L22.6112 20.2319C22.7033 20.2713 22.7803 20.3395 22.8305 20.4263C22.8807 20.5131 22.9014 20.6138 22.8896 20.7133C22.7995 21.3868 22.4678 22.0045 21.9564 22.4518C21.4449 22.899 20.7884 23.1453 20.109 23.1448C18.0169 23.1448 16.0105 22.3137 14.5311 20.8343C13.0518 19.355 12.2207 17.3486 12.2207 15.2565C12.2202 14.5771 12.4664 13.9206 12.9137 13.4091C13.3609 12.8976 13.9787 12.566 14.6521 12.4759C14.7517 12.4641 14.8524 12.4848 14.9392 12.535C15.026 12.5852 15.0942 12.6621 15.1336 12.7543L16.3591 15.492C16.3893 15.5623 16.4015 15.639 16.3948 15.7152C16.3882 15.7914 16.3627 15.8647 16.3209 15.9287L15.0814 17.4026C15.0374 17.4689 15.0114 17.5455 15.0059 17.6249C15.0004 17.7043 15.0156 17.7838 15.05 17.8556C15.5297 18.8375 16.5447 19.8404 17.5296 20.3154C17.6018 20.3497 17.6816 20.3646 17.7612 20.3586C17.8409 20.3526 17.9176 20.3259 17.9838 20.2812L19.4356 19.0464Z" fill="#282506"/>
<path d="M19.4356 19.0464C19.4998 19.0036 19.5737 18.9775 19.6506 18.9705C19.7275 18.9636 19.8049 18.9759 19.8758 19.0063L22.6112 20.2319C22.7033 20.2713 22.7803 20.3395 22.8305 20.4263C22.8807 20.5131 22.9014 20.6138 22.8896 20.7133C22.7995 21.3868 22.4678 22.0045 21.9564 22.4518C21.4449 22.899 20.7884 23.1453 20.109 23.1448C18.0169 23.1448 16.0105 22.3137 14.5311 20.8343C13.0518 19.355 12.2207 17.3486 12.2207 15.2565C12.2202 14.5771 12.4664 13.9206 12.9137 13.4091C13.3609 12.8976 13.9787 12.566 14.6521 12.4759C14.7517 12.4641 14.8524 12.4848 14.9392 12.535C15.026 12.5852 15.0942 12.6621 15.1336 12.7543L16.3591 15.492C16.3893 15.5623 16.4015 15.639 16.3948 15.7152C16.3882 15.7914 16.3627 15.8647 16.3209 15.9287L15.0814 17.4026C15.0374 17.4689 15.0114 17.5455 15.0059 17.6249C15.0004 17.7043 15.0156 17.7838 15.05 17.8556C15.5297 18.8375 16.5447 19.8404 17.5296 20.3154C17.6018 20.3497 17.6816 20.3646 17.7612 20.3586C17.8409 20.3526 17.9176 20.3259 17.9838 20.2812L19.4356 19.0464Z" stroke="white" stroke-width="0.92803" stroke-linecap="round" stroke-linejoin="round"/>
</svg>
